<svg width="32" height="32" viewBox="0 0 32 32" fill="none" xmlns="http://www.w3.org/2000/svg">
  <rect width="32" height="32" rx="7" fill="#006EFF"/>
  <path d="M9.5 18.5a3 3 0 0 1 .3-5.98 4.2 4.2 0 0 1 8.1-1.2 3.3 3.3 0 0 1 3.3 3.28 3.2 3.2 0 0 1-3.2 3.2H9.8a2.9 2.9 0 0 1-.3-.02Z" fill="#FFFFFF" fill-opacity="0.95"/>
  <rect x="10" y="20.5" width="2.4" height="4" rx="0.5" fill="#00D4AA"/>
  <rect x="14" y="18" width="2.4" height="6.5" rx="0.5" fill="#00D4AA"/>
  <rect x="18" y="21.5" width="2.4" height="3" rx="0.5" fill="#00D4AA"/>
  <path d="M22 20.5l3 2.2-3 2.2v-1.4h-2v-1.6h2v-1.4Z" fill="#FFD34E"/>
</svg>
